# xmcd CD database file
#
# Track frame offsets:
#	150
#	14497
#	31535
#	43662
#	58903
#	76527
#	87816
#	101347
#	119534
#	133623
#	150318
#	185356
#	220822
#	256715
#	289858
#	318543
#
# Disc length: 4513 seconds
#
# Revision: 0
# Processed by: cddbd v1.5.2PL0 Copyright (c) Steve Scherf et al.
# Submitted via: CDex 1.70beta2
#
DISCID=c9119f10
DTITLE=le club du zouk - compolie zouk
DYEAR=2005
DGENRE=Salsa
TTITLE0=01 FRANKY VINCENT - Alice ca glisse
TTITLE1=02 KASSAV - zouk la se sel
TTITLE2=03 ZOUK MACHINE - Maldon
TTITLE3=04 ACOUSTIK ZOUK - fonds larion
TTITLE4=05 KASSAV - Sye bwa
TTITLE5=06 RALPH TAMAR - polisson
TTITLE6=07 JOELLE URSULL - amazone
TTITLE7=08 LOCELYNE BERAOD - milans
TTITLE8=09 PHILIPPE LAVIL - kolé séré
TTITLE9=10 MARIJOSE ALIE - Caresse main
TTITLE10=TOTAL ZOUK 1A
TTITLE11=TOTAL ZOUK 2A
TTITLE12=TOTAL ZOUK 3 creole
TTITLE13=TOTAL ZOUK 3 Live
TTITLE14=ST ANGE - Mademoiselle
TTITLE15=LUC LEANDRY - Dans tes yeux
EXTD=YEAR: 2005
EXTT0=
EXTT1=
EXTT2=
EXTT3=
EXTT4=
EXTT5=
EXTT6=
EXTT7=
EXTT8=
EXTT9=
EXTT10=
EXTT11=
EXTT12=
EXTT13=
EXTT14=
EXTT15=
PLAYORDER=
